<?xml version="1.0" encoding="UTF-8"?>
<!DOCTYPE svg PUBLIC "-//W3C//DTD SVG 1.1//EN" "http://www.w3.org/Graphics/SVG/1.1/DTD/svg11.dtd">
<!-- Creator: CorelDRAW 2017 -->
<svg xmlns="http://www.w3.org/2000/svg" xml:space="preserve" width="210mm" height="297mm" version="1.1" style="shape-rendering:geometricPrecision; text-rendering:geometricPrecision; image-rendering:optimizeQuality; fill-rule:evenodd; clip-rule:evenodd"
viewBox="0 0 21000 29700"
 xmlns:xlink="http://www.w3.org/1999/xlink">
 <defs>
  <style type="text/css">
   <![CDATA[
    .fil0 {fill:#FEFEFE}
   ]]>
  </style>
 </defs>
 <g id="Capa_x0020_1">
  <metadata id="CorelCorpID_0Corel-Layer"/>
  <g id="_3100753673920">
   <g>
    <path class="fil0" d="M20985.39 11704.93c-180.5,-2178.13 -2001.83,-3853.48 -4187.4,-3851.86 -622.23,-0.48 -1236.72,138.21 -1798.42,405.87 -352.86,-2485.07 -2653.46,-4213.52 -5138.49,-3860.66 -2002.62,284.37 -3576.28,1858.03 -3860.61,3860.61 -2094.72,-994.55 -4599.09,-102.73 -5593.68,1992 -994.6,2094.73 -102.74,4599.09 1991.99,5593.69 456.91,216.93 949.29,349.54 1453.39,391.39l0 8761.52c0,193.23 156.66,349.89 349.89,349.89l12595.93 0c193.23,0 349.89,-156.66 349.89,-349.89l0 -8761.48c2310.91,-191.52 4029.03,-2220.16 3837.51,-4531.08zm-4537.29 9443.85l-11196.38 0 0 699.77 11196.38 0 0 2799.1 -11896.16 0 0 -4198.64 11896.16 -0.01 0 699.78zm2268.71 -6168.86c-570.36,373.02 -1237.29,571.37 -1918.82,570.67 -193.23,0 -349.89,156.66 -349.89,349.89l0 3848.76 -2690.98 -0.01 929.3 -3406.85 -675.28 -184.04 -979.33 3590.89 -2181.9 0 0 -3848.76 -699.78 0 0 3848.76 -2181.89 0 -979.68 -3590.89 -675.28 184.04 929.65 3406.85 -2690.99 0 0 -3848.76c0,-193.23 -156.66,-349.89 -349.89,-349.89 -1932.38,2.06 -3500.53,-1562.81 -3502.54,-3495.2 -2.06,-1932.38 1562.81,-3500.53 3495.2,-3502.54 681.54,-0.7 1348.42,197.64 1918.82,570.67 161.74,105.71 378.58,60.31 484.29,-101.42 36.08,-55.24 55.85,-119.53 56.99,-185.48 28.69,-2123.68 1773.49,-3822.03 3897.17,-3793.34 2083.27,28.12 3765.22,1710.12 3793.34,3793.34 3.28,193.23 162.61,347.18 355.79,343.9 65.95,-1.14 130.25,-20.86 185.48,-56.99 1617.22,-1057.71 3785.65,-604.12 4843.31,1013.1 1057.67,1617.16 604.09,3785.59 -1013.09,4843.3z"/>
   </g>
  </g>
  <g id="_3100753673088">
  </g>
  <g id="_3100753672928">
  </g>
  <g id="_3100753670880">
  </g>
  <g id="_3100753671616">
  </g>
  <g id="_3100753670752">
  </g>
  <g id="_3100753671168">
  </g>
  <g id="_3100753671360">
  </g>
  <g id="_3100753672512">
  </g>
  <g id="_3100753671040">
  </g>
  <g id="_3100753670912">
  </g>
  <g id="_3100753668544">
  </g>
  <g id="_3100753670464">
  </g>
  <g id="_3100753669376">
  </g>
  <g id="_3100753668800">
  </g>
  <g id="_3100753669952">
  </g>
 </g>
</svg>
