<?xml version="1.0" encoding="UTF-8"?>
<!DOCTYPE svg PUBLIC "-//W3C//DTD SVG 1.1//EN" "http://www.w3.org/Graphics/SVG/1.1/DTD/svg11.dtd">
<!-- Creator: CorelDRAW 2017 -->
<svg xmlns="http://www.w3.org/2000/svg" xml:space="preserve" width="210mm" height="297mm" version="1.1" style="shape-rendering:geometricPrecision; text-rendering:geometricPrecision; image-rendering:optimizeQuality; fill-rule:evenodd; clip-rule:evenodd"
viewBox="0 0 21000 29700"
 xmlns:xlink="http://www.w3.org/1999/xlink">
 <defs>
  <style type="text/css">
   <![CDATA[
    .fil0 {fill:#FEFEFE}
   ]]>
  </style>
 </defs>
 <g id="Capa_x0020_1">
  <metadata id="CorelCorpID_0Corel-Layer"/>
  <path class="fil0" d="M17397.21 12286.97c204.62,-384.42 298.87,-820.58 268.56,-1264.06 -78.84,-1154.87 -1008.98,-2089.66 -2163.57,-2174.42 -226.13,-16.59 -450.39,-1.22 -669.01,45.81 -690.48,-618.64 -2022.71,-1058.6 -3055.75,-1325 -460.07,-118.63 -799.57,-467.35 -908.06,-932.77 -107.03,-459.08 40.5,-915.16 394.71,-1219.94 29.18,-25.09 42.94,-34.35 42.61,-34.35 -0.05,0 -0.09,0 -0.14,0.05 105.76,-57.65 171.59,-168.44 171.54,-288.91 -0.05,-120.56 -66.01,-231.44 -171.96,-288.95 -698.89,-379.44 -1519.61,-528.62 -2311.05,-419.8 -818.51,112.43 -1560.72,481.4 -2146.42,1067.01 -890.2,890.3 -1268.98,2176.91 -1030.54,3394.74 -135.97,-8.32 -273.31,-4.84 -411.35,10.57 -1123.77,125.21 -1995.41,1036.14 -2072.56,2165.97 -30.3,443.48 63.9,879.68 268.56,1264.11 -1130.81,507.29 -1857.05,1685.79 -1769.04,2953.37 50.74,730.74 370.85,1417.65 901.25,1934.15 63.52,61.83 129.54,120.42 197.52,176l991.04 7005c19.03,134.56 118.87,243.61 251.32,274.29 2068.99,480.13 4197.09,720.22 6325.23,720.22 2128.14,0 4256.24,-240.04 6325.23,-720.22 132.4,-30.73 232.24,-139.73 251.32,-274.29l991.04 -7005.04c68.03,-55.58 134.05,-114.17 197.52,-176 530.4,-516.5 850.51,-1203.36 901.25,-1934.15 87.85,-1267.6 -638.39,-2446.05 -1769.25,-2953.39zm-13738.28 5502.87c325.55,138.56 674.83,219.42 1033.09,235.25 38.86,1.69 77.71,2.58 116.47,2.82l616.34 6191.84c-294.92,-55.54 -588.99,-115.39 -881.8,-180.75l-884.1 -6249.16zm10932.82 -211.9c291.49,180.51 611.73,309.06 945.6,381.42l-634.38 6378.42c-308.17,50.04 -617.28,94.72 -927.14,134.14l448.09 -6745.93c56.66,-48.3 112.72,-97.45 167.83,-148.05zm-1280.18 6970.23c-304.36,31.2 -609.24,57.84 -914.54,78.89l193.39 -5826.64c398.19,-146.12 780.08,-334.53 1140.3,-562.68l-419.15 6310.43zm-1573.92 115.96c-302.77,13.58 -605.72,22.46 -908.81,26.03l0 -5529.79c373.05,-19.83 739.81,-73.2 1096.75,-158.95l-187.94 5662.71zm-1566.54 26.07c-303.05,-3.62 -606.05,-12.45 -908.81,-26.03l-187.94 -5662.71c356.94,85.75 723.7,139.12 1096.75,158.95l0 5529.79zm-1761.57 -5889.83l193.39 5826.64c-305.3,-21.05 -610.18,-47.69 -914.54,-78.89l-419.1 -6310.43c360.22,228.2 742.1,416.56 1140.25,562.68zm-1833.46 -1074.29l448.04 6745.88c-309.63,-39.42 -618.55,-84.05 -926.53,-134.05l-634.9 -6378.56c333.87,-72.36 654.07,-200.9 945.55,-381.37 55.12,50.61 111.22,99.76 167.84,148.1zm9880.89 6312.97c-292.62,65.31 -586.46,125.12 -881.19,180.65l615.82 -6191.75c38.76,-0.19 77.57,-1.13 116.43,-2.82 358.25,-15.83 707.53,-96.69 1033.09,-235.25l-884.15 6249.17zm2053.11 -8844.28c-39.51,569.21 -289.52,1104.92 -703.87,1508.42 -414.35,403.45 -956.74,639.55 -1527.31,664.78 -554.93,24.57 -1082.23,-139.45 -1522.94,-474.4 -131.04,-99.61 -315.73,-86.92 -431.97,29.74 -1020.35,1024.25 -2378.38,1588.3 -3823.99,1588.3 -1445.56,0 -2803.63,-564.04 -3824.03,-1588.3 -63.8,-64.04 -148.19,-96.79 -233.09,-96.79 -69.72,0 -139.78,22.08 -198.88,67.05 -440.66,334.9 -967.59,498.92 -1522.89,474.35 -570.57,-25.23 -1112.96,-261.33 -1527.31,-664.78 -414.35,-403.5 -664.4,-939.21 -703.87,-1508.42 -76.58,-1102.72 634.9,-2118.93 1693.07,-2421.14 74.33,-21.24 142.93,-62.49 188.22,-125.17 90.54,-125.31 81.8,-288.76 -9.63,-401.76 -268.61,-331.8 -400.35,-750.52 -371.13,-1179.07 54.6,-799.15 694.8,-1468.53 1489.21,-1557.05 5.4,-0.61 10.85,-1.17 16.26,-1.74 306.34,-31.34 613.28,48.21 873.76,212.46 315.22,198.79 869.68,507.1 1636.41,777.73 788.96,278.47 1920,553.05 3313.13,553.05 585.84,0 1218.25,-48.63 1890.69,-165.85 178.45,-31.1 310.66,-195.03 284.3,-374.28 -27.06,-184.08 -200.34,-308.45 -382.4,-276.31 -2124.62,373.52 -3814.92,17.48 -4858.9,-347.07 -911.96,-318.41 -1504.15,-698.51 -1705,-838.2 -345.29,-1097.45 -50.18,-2317.4 765.98,-3133.6 856,-855.91 2141.02,-1125.88 3257.5,-723.18 -348.95,445.22 -476.61,1017.49 -342.56,1592.29 162.75,697.85 693.25,1242.12 1384.43,1420.33 1421.69,366.62 2468.4,828.89 2874.25,1269.23 87.72,95.19 220.59,136.16 344.35,98.24 200.76,-61.5 410.17,-84.76 622.26,-69.25 830.11,60.99 1466.09,735.86 1555.5,1563.21 146.68,1356.76 -2731.51,4274.85 -8747.02,2883.18 -180.18,-41.67 -359.9,73.3 -396.64,255.78 -35.47,176.14 85.32,347.49 260.39,387.85 1165.67,268.8 2200.17,375.87 3109.26,375.87 1692.51,0 2949.61,-371.5 3803.6,-762.69 1062.69,-486.8 1691.43,-1077.49 1962.29,-1372.87 955.29,361.97 1580.64,1322.7 1508.57,2360.06z"/>
  <g id="_3100753617216">
  </g>
  <g id="_3100753616544">
  </g>
  <g id="_3100753615968">
  </g>
  <g id="_3100753614144">
  </g>
  <g id="_3100753614240">
  </g>
  <g id="_3100753614016">
  </g>
  <g id="_3100753615200">
  </g>
  <g id="_3100753614464">
  </g>
  <g id="_3100753613536">
  </g>
  <g id="_3100753613504">
  </g>
  <g id="_3100753612064">
  </g>
  <g id="_3100753611840">
  </g>
  <g id="_3100753612448">
  </g>
  <g id="_3100753611168">
  </g>
  <g id="_3100753611392">
  </g>
 </g>
</svg>
