<?xml version="1.0" encoding="UTF-8"?>
<!DOCTYPE svg PUBLIC "-//W3C//DTD SVG 1.1//EN" "http://www.w3.org/Graphics/SVG/1.1/DTD/svg11.dtd">
<!-- Creator: CorelDRAW 2017 -->
<svg xmlns="http://www.w3.org/2000/svg" xml:space="preserve" width="48.26mm" height="40.811mm" version="1.1" style="shape-rendering:geometricPrecision; text-rendering:geometricPrecision; image-rendering:optimizeQuality; fill-rule:evenodd; clip-rule:evenodd"
viewBox="0 0 4826 4081.1"
 xmlns:xlink="http://www.w3.org/1999/xlink">
 <defs>
  <style type="text/css">
   <![CDATA[
    .fil1 {fill:#FEFEFE;fill-rule:nonzero}
    .fil0 {fill:#F389A1;fill-rule:nonzero}
    .fil2 {fill:#FEFEFE;fill-rule:nonzero}
    .fil3 {fill:#FFCC29;fill-rule:nonzero}
   ]]>
  </style>
 </defs>
 <g id="Capa_x0020_1">
  <metadata id="CorelCorpID_0Corel-Layer"/>
  <path class="fil0" d="M1233.24 970.21c1.63,-33.33 -4.9,-63.5 -19.64,-90.56 -15.84,-28.89 -39.73,-50.69 -71.58,-65.51 -31.89,-14.46 -63.96,-18.52 -96.28,-12.1 -0.84,-50.69 -12.59,-99.62 -35.24,-146.82 -22.37,-47.2 -53.02,-87.32 -92,-120.37 -33.38,-28.33 -74.93,-53.02 -124.6,-74.05 -20.25,-8.01 -39.69,-14.6 -58.39,-19.82 -0.56,-3.21 -1.34,-6.25 -2.22,-9.07 -5.01,-16.19 -16.26,-29.49 -33.76,-40.04 -5.51,-3.42 -11.47,-6.49 -17.89,-9.17 0.25,-1.03 0.5,-1.98 0.74,-3 2.08,-5.72 0.78,-29.85 -3.91,-72.39 -5.08,-43.82 -10.3,-73.63 -15.6,-89.47 -3.88,-10.72 -10.02,-21.55 -18.48,-32.52 -5.82,-7.31 -14.47,-16.65 -25.86,-28.01 -17.92,-18.98 -33.62,-31.4 -47.2,-37.4 -8.43,-3.81 -17.01,-4.87 -25.65,-3.14 -9.91,2.15 -15.8,7.06 -17.74,14.75 18.59,4.23 39.65,18.03 63.18,41.34 19.23,18.84 32.81,36.83 40.82,54.05 5.15,10.62 9.03,23.14 11.57,37.57 1.3,7.66 2.96,20.89 4.94,39.58 2.36,27.48 2.96,48.9 1.65,64.31 -0.14,1.63 -0.31,3.43 -0.49,5.4 -1.02,-0.25 -2.01,-0.46 -2.96,-0.7 -46.5,-6.71 -79.77,1.9 -99.8,25.78 -9.46,11.22 -15.67,25.76 -18.67,43.61 -48.79,14.99 -91.82,38.59 -129.04,70.8 -37.26,31.89 -66.85,71.08 -88.83,117.58 -21.42,45.79 -32.7,93.49 -33.94,143.05 -0.18,12.74 -0.56,21.38 -1.13,25.97 -1.48,9.56 -4.06,17.42 -7.72,23.63 -3.11,5.47 -8.01,10.94 -14.68,16.41 -7.94,5.89 -13.93,10.33 -17.89,13.26 -41.98,30.02 -74.43,68.02 -97.47,113.95 -20.28,39.86 -28.82,77.86 -25.68,114.05 3.67,30.9 13.62,57.54 29.88,79.87 24.24,35 62.37,61.95 114.44,80.82 15.1,5.22 30.48,9.56 46.07,13.09 -1.48,1.76 27.52,59.94 86.96,174.52 59.83,115.18 93.35,174.41 100.44,177.73 7.83,3.84 178.93,-2.93 513.26,-20.32 6.38,-38.67 25.25,-121 56.58,-247.09 29.63,-119.41 44.38,-179.6 44.31,-180.55 45.61,-25.47 80.01,-58.24 103.22,-98.35 15.74,-28.4 24.49,-58.6 26.28,-90.67z"/>
  <path class="fil1" d="M959.45 803.21l-5.29 0.95c-2.22,0.85 -3.24,2.08 -3.1,3.67 4.02,1.3 7.97,1.94 11.89,1.9l5.89 0.5 2.54 1.2c0.35,0 0.67,0.14 1.02,0.42 -2.5,4.76 -4.83,10.16 -6.88,16.23 -5.43,16.09 -6.38,25.75 -2.82,29.03 5.57,4.41 14.18,6.07 25.79,5.08 37.11,-3.88 64.66,-5.15 82.69,-3.77 25.89,2.29 47.34,9.35 64.31,21.23 -0.39,2.62 -0.63,5.44 -0.71,8.33 -0.81,9.84 -1.55,16.12 -2.29,18.77 -1.02,3.35 -3.53,7.79 -7.62,13.37l-11.25 16.58c-6.99,9.42 -16.12,18.66 -27.34,27.76 10.4,-0.24 21.73,-8.39 34.01,-24.41 10.12,-14.25 16.22,-24.55 18.27,-30.9 2.15,-5.4 3.7,-11.72 4.69,-18.98 0.21,-1.31 0.46,-2.44 0.71,-3.46 5.64,5.36 10.54,11.29 14.67,17.74 0.04,4.24 0.53,9.57 1.45,16.02 0.18,6.14 -1.77,13.65 -5.86,22.47 -4.87,11.5 -14.21,27.59 -28.01,48.33l-5.71 7.84c-3.46,4.83 -9.77,10.9 -18.91,18.23l-52 41.63 -11.08 7.3c-15.91,7.91 -31.08,11.19 -45.54,9.85 -9.81,-0.78 -15.91,0.07 -18.28,2.57 8.05,2.86 17.78,4.31 29.14,4.27 10.02,-0.88 17.4,-2.01 22.19,-3.39 7.66,-1.65 13.8,-3.98 18.42,-6.98 3.1,-1.55 8.46,-5.29 16.08,-11.15l29.71 -23.6c13.09,-10.23 22.89,-19.05 29.42,-26.46 3.32,-3.24 7.59,-8.32 12.81,-15.31 11.96,-15.98 21.73,-32.95 29.24,-50.87 3.88,-8.15 5.89,-14.64 6.1,-19.54l0.29 -2.47c2.64,7.9 4.51,16.37 5.64,25.36 2.51,24.84 -1.83,48.33 -12.91,70.45 -11.57,23.81 -25.61,44.2 -41.98,61.28 -18.8,19.86 -38.98,32.84 -60.57,38.95 -68.87,20 -125.34,18.09 -169.41,-5.72 -10.62,-5.93 -23.46,-15.2 -38.56,-27.9 -10.86,-8.82 -18.38,-13.06 -22.57,-12.67 -7.73,0.99 -14.22,5.15 -19.44,12.42 -4.31,6.56 -7.2,14.29 -8.71,23.21 -0.36,3.32 -0.82,11.47 -1.27,24.52 -0.11,10.09 -1.06,18.17 -2.76,24.2 -6.49,19.09 -20.99,33.69 -43.56,43.78 -0.96,0.11 -2.09,0.21 -3.43,0.32 -2.82,0.92 -5.29,2.26 -7.4,4.05 -4.41,1.7 -9,3.07 -13.8,4.13 -30.55,8.22 -60.32,8.36 -89.29,0.46 -31.71,-8.96 -54.5,-25.65 -68.36,-50.16 -6.99,-16.97 -13.13,-29.28 -18.31,-36.98 -10.13,-14.74 -21.31,-21.73 -33.62,-20.99 -3.18,0.29 -7.94,5.75 -14.19,16.37 -8.46,14.71 -17.21,26.43 -26.21,35 -34.29,32.6 -90.45,46.92 -168.59,43 -30.06,-1.27 -60.54,-15.24 -91.51,-41.8 -17.57,-15.07 -30.3,-34.29 -38.21,-57.72 -1.3,-3.45 -2.25,-6.95 -2.89,-10.47 5.08,9.66 12.7,18.73 22.9,27.3l50.23 33.2 21.56 6.42c10.62,2.33 25.04,2.04 43.39,-0.85 3.84,-0.35 5.89,-1.48 6.03,-3.46 -0.18,-1.94 -1.23,-3.14 -3.24,-3.63 -0.36,-0.28 -2.02,-0.32 -4.91,-0.03 -8.68,1.41 -16.4,1.9 -23.28,1.51 -5.5,0.5 -10.41,0.11 -14.75,-1.16 -6.81,-3.28 -10.55,-4.94 -11.15,-4.87l-9.98 -2.54c-1.69,-0.49 -4.62,-2.54 -8.85,-6.07 -17.78,-10.16 -30.45,-18.66 -37.86,-25.5 -3.52,-3.28 -7.51,-7.8 -11.92,-13.62l-14.25 -17.78c-3.6,-4.23 -5.86,-7.3 -6.63,-9.21l-1.77 -3.24c-1.02,-11.96 -0.63,-23.89 1.27,-35.74 0.46,-2.33 0.88,-4.66 1.34,-6.95 3.25,3.6 7.3,7.16 12.17,10.65l19.44 15.88c2.51,2.4 5.05,3.95 7.73,4.69 3.35,0.99 5.89,0.28 7.62,-2.15l-28.79 -22.37c-4.55,-3.84 -7.76,-6.98 -9.63,-9.42l-5.15 -8.82c4.83,-15.73 12.28,-30.69 22.47,-44.9 13.58,-19.44 30.41,-35.53 50.45,-48.37 8.96,-5.33 22.79,-13.02 41.41,-23.11 15.77,-9.52 27.13,-19.61 33.98,-30.3 0.84,-1.38 1.72,-2.93 2.54,-4.62 0.98,-0.11 1.94,-0.18 2.89,-0.25 0.1,1.27 1.06,2.33 2.72,3.18l4.41 0.1c2.29,0.14 5.78,0.95 10.47,2.51 6.35,1.73 14.68,2.15 25.01,1.23l1.45 -5.5c-2.43,-2.05 -6,-3.39 -10.58,-3.95 -5.54,-0.18 -9.63,-0.46 -12.28,-0.89 -3.91,-0.31 -11.01,-1.16 -21.2,-2.54 2.61,-7.09 4.73,-14.74 6.28,-23 1.97,0.14 3.49,0.53 4.51,1.06 2.72,1.73 4.45,2.54 5.05,2.51 1.06,0.56 2.72,0.88 5.01,1.02 0.99,0.21 2.36,1.09 4.13,2.58 2.47,2.04 5.11,2.61 7.97,1.72 -0.5,-1.58 -0.18,-3.56 0.92,-5.92 -3.88,-3.88 -9.88,-7.27 -17.96,-10.16 -3.35,-1.34 -6.21,-2.4 -8.57,-3.14l-0.04 -0.5c1.13,-9.52 1.77,-28.32 1.91,-56.3 0.24,-23.46 1.76,-41.8 4.48,-55.07 7.79,-33.9 30.44,-72.81 67.94,-116.73 24.24,-28.15 45.12,-48.19 62.62,-60.15 15.06,-10.09 32.56,-18.45 52.46,-25.08 1.02,3.84 2.64,7.44 4.87,10.83 2.61,3.98 10.33,10.3 23.14,18.98 16.44,9.27 27.87,15.62 34.36,18.94 12.88,6.07 25.12,10.02 36.69,11.92 7.23,1.03 16.37,1.38 27.41,1.06 18.27,0.36 32.35,-2.01 42.37,-7.12 7.12,-3.88 13.3,-9.78 18.45,-17.71 1.69,0.84 3.6,1.97 5.64,3.42 3.18,2.64 4.48,6.42 3.95,11.36 -0.42,2.64 -3.74,7.65 -9.95,15.03 -4.12,4.9 -6.94,7.76 -8.5,8.57 -1.23,0.74 -3.63,1.27 -7.19,1.59 -16.8,1.76 -28.4,2.78 -34.86,3.03 -13.02,0.49 -24.48,-0.32 -34.39,-2.36 -9.63,-2.44 -16.94,-3.74 -21.84,-3.95 -6.17,0.17 -10.73,0.1 -13.69,-0.29 -3.6,-0.35 -8.75,-1.51 -15.42,-3.52l-28.57 -8.26c-4.69,-1.55 -8.04,-3.07 -10.16,-4.51 -2.79,-2.02 -4.87,-3.46 -6.24,-4.34 -2.37,-1.38 -4.59,-2.16 -6.53,-2.33 0.42,-2.33 -0.18,-3.88 -1.87,-4.73 -3.03,-1.06 -5.12,-0.53 -6.24,1.52l-0.18 3.42c0.6,3.21 3.35,6.56 8.22,10.05 4.48,2.86 8.71,4.94 12.73,6.21l11.12 4.38c2.29,0.14 4.48,0.91 6.56,2.36l6.14 3.39c1.69,0.49 4.62,0.74 8.85,0.67l6.49 1.9c9.03,2.79 21.56,4.45 37.57,5.01 0.18,1.94 2.05,3.07 5.65,3.42l21.09 1.1c0.64,-0.07 1.31,0.21 2.01,0.77 0.71,0.6 0.92,1.1 0.64,1.41l48.51 -3.24c8.46,-0.07 14.85,-1.45 19.19,-4.09 2.47,-1.52 4.9,-3.71 7.23,-6.49 5.36,-5.68 9.56,-11.43 12.63,-17.22 3.14,-5.15 4.55,-9.52 4.23,-13.09 -0.56,-3.17 -1.8,-6 -3.63,-8.46 -4.02,-5.19 -8.29,-9.53 -12.84,-13.02 -0.07,-0.64 0.07,-1.13 0.32,-1.52 2.92,-7.72 5.92,-18.06 9.03,-31.04 32.35,8.92 67.34,25.54 104.91,49.95 39.34,25.51 68.62,51.61 87.84,78.25 14.4,19.58 29.46,48.36 45.12,86.39 7.45,18.2 12.14,32.63 14.04,43.18 1.77,8.96 2.16,17.39 1.2,25.3 -3.84,0.31 -7.76,0.35 -11.71,0.03 -1.97,-0.18 -6.28,-1.23 -12.94,-3.24 -5.33,-1.52 -9.81,-2.26 -13.38,-2.26 1.1,1.51 0.5,1.9 -1.86,1.13 0.31,3.88 2.54,6.45 6.52,7.72 0.39,0.32 3,0.57 7.87,0.78l6.07 2.4c3.07,1.37 7.69,2.11 13.9,2.18l3.88 0.18c-1.03,3 -2.23,5.89 -3.6,8.61 -0.88,1.69 -1.84,3.56 -2.93,5.64l-16.23 -1.06 -0.39 1.03z"/>
  <path class="fil0" d="M579.23 428.73c0.81,-1.69 1.87,-4.55 3.18,-8.57 1.72,-2.12 5.15,-4.02 10.23,-5.78 5.64,-2.44 9.94,-3.46 12.91,-3.07 2.61,0.42 6.31,2.04 11.15,4.87 9.27,5.36 13.97,10.83 14.14,16.33 -0.14,2.29 -1.34,5.82 -3.49,10.58l-10.48 19.93 -28.15 1.98c-3.85,0.35 -6.63,0.07 -8.36,-0.74 -2.36,-1.41 -3.99,-6.67 -4.8,-15.7 -1.2,-6.39 -1.41,-10.62 -0.56,-12.63l4.23 -7.2z"/>
  <path class="fil0" d="M616.98 497.7l-2.44 0.21c-5.78,0.5 -10.05,0.39 -12.73,-0.38 -1.98,-0.46 -3.21,-1.34 -3.64,-2.58 -0.7,-0.6 -1.12,-1.87 -1.3,-3.81l-0.57 -6.31c-0.1,-1.27 0.15,-2.3 0.75,-3 0.24,-0.67 1.37,-1.06 3.28,-1.24l-0.07 -0.95 7.76 -0.71c2.57,-0.24 5.08,0.22 7.41,1.31l3.17 2.65 2.75 3.66c0.5,1.59 -0.1,4.1 -1.76,7.48 -0.5,1.66 -1.38,2.9 -2.61,3.67z"/>
  <path class="fil1" d="M677.02 1281.82c0.14,-1.94 0.14,-3.91 -0.04,-5.85 18.35,1.34 36.48,0.38 54.44,-2.79 -0.71,3 1.3,50.34 6.03,142.03 5.01,91.01 7.73,136.98 8.15,137.93l-51.75 0.11c-1.87,-17.43 -6.67,-61.28 -14.4,-131.55 -1.48,-13.2 -2.47,-39.13 -2.92,-77.83 -0.18,-32.52 -0.04,-53.23 0.49,-62.05z"/>
  <path class="fil1" d="M584.06 1554.02c-1.62,0.15 -9.45,1.66 -23.53,4.48 -14.04,3.22 -22.05,4.7 -23.99,4.56 -0.07,-4.24 -33.86,-108.38 -101.45,-312.39 0.91,-0.74 7.72,-3.1 20.39,-7.13 12.66,-3.7 19.47,-6.1 20.35,-7.16 4.45,-4.94 11.25,-12.7 20.43,-23.24 2.11,-2.16 4.23,-3.81 6.42,-4.98 47.48,216.54 74.61,331.82 81.38,345.86z"/>
  <path class="fil1" d="M912.43 1546.4c-33.76,4.56 -53.09,7.06 -57.93,7.52 3,-6.49 19.72,-124.92 50.06,-355.39 4.98,0.88 17.39,1.59 37.29,2.12 10.76,0.03 23.6,0.07 38.59,0.07 -11.88,46.92 -34.53,162.13 -68.01,345.68z"/>
  <path class="fil2" d="M582.41 420.16c-1.31,4.02 -2.37,6.88 -3.18,8.57l-4.23 7.2c-0.85,2.01 -0.64,6.24 0.56,12.63 0.81,9.03 2.44,14.29 4.8,15.7 1.73,0.81 4.51,1.09 8.36,0.74l28.15 -1.98 10.48 -19.93c2.15,-4.76 3.35,-8.29 3.49,-10.58 -0.17,-5.5 -4.87,-10.97 -14.14,-16.33 -4.84,-2.83 -8.54,-4.45 -11.15,-4.87 -2.97,-0.39 -7.27,0.63 -12.91,3.07 -5.08,1.76 -8.51,3.66 -10.23,5.78zm32.13 77.75l2.44 -0.21c1.23,-0.77 2.11,-2.01 2.61,-3.67 1.66,-3.38 2.26,-5.89 1.76,-7.48l-2.75 -3.66 -3.17 -2.65c-2.33,-1.09 -4.84,-1.55 -7.41,-1.31l-7.76 0.71 0.07 0.95c-1.91,0.18 -3.04,0.57 -3.28,1.24 -0.6,0.7 -0.85,1.73 -0.75,3l0.57 6.31c0.18,1.94 0.6,3.21 1.3,3.81 0.43,1.24 1.66,2.12 3.64,2.58 2.68,0.77 6.95,0.88 12.73,0.38z"/>
  <path class="fil3" d="M488.8 2770.77c0,235.01 74.51,393.59 324.8,393.59 189.15,0 334.36,-139.48 334.36,-330.54 0,-164.31 -89.8,-259.84 -200.61,-292.32 139.47,-74.51 246.46,-202.52 246.46,-410.78 0,-271.31 -189.15,-433.71 -477.65,-433.71 -340.08,0 -575.09,233.1 -575.09,590.38 0,223.54 108.91,338.18 139.48,366.84 55.4,42.03 106.99,-84.07 106.99,-118.46 0,-19.11 -7.64,-32.48 -28.66,-26.75 -3.82,-5.73 -72.6,-64.96 -72.6,-233.09 0,-233.1 124.19,-435.62 431.79,-435.62 235.01,0 328.63,149.02 328.63,294.23 0,277.04 -219.72,336.27 -309.52,336.27 -57.32,0 -24.84,143.29 9.55,143.29 120.37,0 252.2,51.59 252.2,223.54 0,110.82 -80.24,194.89 -187.24,194.89 -112.72,0 -173.86,-72.61 -173.86,-256.03l0 -708.83c0,-45.85 -43.95,-84.07 -107,-84.07 -26.74,0 -49.67,13.38 -49.67,32.48 0,13.38 7.64,24.84 7.64,61.14l0 693.55zm1335.51 235.01c-45.85,0 -64.96,-45.86 -64.96,-87.89l0 -315.25c0,-45.86 -40.12,-84.07 -103.17,-84.07 -26.75,0 -49.68,13.38 -49.68,32.48 0,13.38 7.65,24.84 7.65,61.14l0 294.24c-21.02,53.49 -55.41,99.35 -107,99.35 -66.87,0 -108.9,-57.32 -108.9,-156.67 0,-275.13 170.04,-399.32 315.25,-399.32 19.1,0 38.21,3.82 55.41,3.82 19.1,0 24.83,-11.46 24.83,-43.94 0,-49.68 -36.3,-80.25 -87.88,-80.25 -233.1,0 -454.73,194.88 -454.73,513.96 0,162.4 78.34,288.5 227.36,288.5 72.61,0 126.1,-34.39 164.32,-78.34 28.65,45.86 80.24,78.34 147.11,78.34 164.31,0 240.74,-171.96 273.22,-298.06 1.91,-7.64 1.91,-11.46 1.91,-13.37 0,-36.3 -36.3,-78.34 -66.87,-78.34 -19.11,0 -38.21,17.2 -45.86,57.32 -17.19,84.07 -51.58,206.35 -128.01,206.35zm135.65 42.03c0,70.69 53.5,84.07 91.71,84.07 55.41,0 53.5,-45.86 53.5,-82.16l0 -328.62c59.23,-202.53 145.2,-263.67 191.06,-263.67 36.3,0 61.14,32.48 61.14,80.25 0,175.77 -177.69,236.91 -177.69,296.14 0,126.1 99.35,298.06 250.29,298.06 173.87,0 267.48,-192.97 301.88,-296.15 15.28,-61.14 -87.89,-150.93 -110.82,-34.39 -17.19,84.07 -82.16,204.44 -170.04,204.44 -74.52,0 -116.55,-76.43 -135.66,-158.58 76.43,-55.41 183.42,-164.32 183.42,-311.43 0,-107 -51.58,-206.35 -170.04,-206.35 -85.98,0 -162.4,74.52 -223.54,158.58l0 -596.11c0,-45.85 -40.13,-84.06 -103.18,-84.06 -26.74,0 -61.13,7.64 -61.13,21.01 0,13.38 19.1,17.2 19.1,72.61l0 1146.36zm1108.15 -525.42c0,-114.63 -64.96,-192.97 -171.95,-192.97 -147.12,0 -292.33,181.51 -292.33,424.16 0,238.82 164.32,378.3 338.18,378.3 280.86,0 357.28,-231.19 370.66,-347.73 7.64,-66.87 -99.35,-105.09 -116.55,-19.11 -22.93,116.55 -84.07,240.74 -233.09,240.74 -99.35,0 -150.94,-53.5 -177.69,-118.46 185.33,-55.41 282.77,-223.54 282.77,-364.93zm-307.61 225.46c-3.82,-80.25 24.84,-290.42 118.46,-290.42 24.84,0 40.12,24.84 40.12,66.87 0,114.64 -61.14,213.99 -156.67,257.94 0,-11.47 -1.91,-22.93 -1.91,-34.39zm852.13 384.03c164.32,0 238.83,-171.96 273.22,-298.06 0,-3.82 1.91,-7.64 1.91,-13.37 0,-36.3 -36.3,-78.34 -66.87,-78.34 -19.11,0 -38.21,17.2 -45.86,57.32 -17.19,84.07 -49.67,206.35 -137.56,206.35 -51.59,0 -76.42,-49.68 -76.42,-103.18 0,-191.06 85.97,-416.51 85.97,-439.44 7.65,-43.94 -68.78,-106.99 -91.7,-106.99l-99.36 0c-19.1,0 -38.21,0 -101.26,-7.64 -21.02,-78.34 -74.51,-101.26 -120.37,-101.26 -49.67,0 -95.53,34.39 -95.53,87.88 0,55.41 34.39,95.53 82.16,122.28 -1.91,97.44 -9.55,256.02 -30.57,332.45 -17.2,64.96 82.16,133.74 106.99,53.5 34.39,-110.82 45.86,-277.04 47.77,-351.56l21.02 0 145.2 0c-61.14,164.32 -95.53,299.97 -95.53,422.25 0,168.13 106.99,217.81 196.79,217.81zm848.32 -332.45c-38.22,131.83 -99.36,227.36 -168.14,303.79l0 -670.62c0,-45.86 -40.12,-84.07 -103.17,-84.07 -26.75,0 -49.68,13.37 -49.68,32.48 0,13.37 7.65,24.84 7.65,61.14l0 307.61c-22.93,133.74 -80.25,257.93 -156.67,257.93 -55.41,0 -87.89,-55.41 -87.89,-158.58 0,-160.49 21.02,-244.56 55.41,-385.95 7.64,-28.65 63.05,-105.08 -30.57,-105.08 -101.26,0 -87.89,38.21 -101.26,70.69 0,0 -68.79,227.37 -68.79,429.89 0,166.22 74.52,275.13 202.53,275.13 82.15,0 141.38,-55.41 187.24,-131.83l0 242.64c-126.1,110.82 -236.92,208.26 -236.92,401.23 0,122.28 76.43,219.72 183.42,219.72 97.44,0 198.7,-70.69 198.7,-271.31l0 -330.53c103.18,-89.8 213.99,-202.53 278.95,-424.16 1.91,-7.64 1.91,-17.19 1.91,-19.1 0,-36.3 -36.3,-78.34 -66.87,-78.34 -19.11,0 -34.39,17.2 -45.85,57.32zm-366.84 945.75c-30.57,0 -49.68,-45.85 -49.68,-105.08 0,-114.64 42.04,-187.24 103.18,-250.29l0 204.43c0,36.31 7.64,150.94 -53.5,150.94z"/>
  <path class="fil3" d="M1669.32 2004.47c160.49,0 284.68,-128.01 284.68,-282.77 0,-319.07 -468.1,-324.8 -468.1,-620.94 0,-208.26 235.01,-376.39 376.39,-376.39 76.43,0 105.09,40.12 105.09,105.08 0,126.1 -171.96,286.59 -275.13,286.59 -32.48,0 -49.68,-19.11 -49.68,13.37 0,40.13 40.13,110.82 107,110.82 116.54,0 363.01,-200.61 363.01,-412.69 0,-149.03 -91.71,-246.47 -240.73,-246.47 -259.85,0 -534.97,267.49 -534.97,519.69 0,389.76 466.18,399.31 466.18,626.67 0,82.16 -55.4,133.75 -133.74,133.75 -72.6,0 -105.08,-40.13 -110.81,-45.86 -5.73,-11.46 -11.47,-17.19 -21.02,-17.19 -28.66,0 -74.51,66.87 -74.51,110.81 0,11.47 43.94,95.53 206.34,95.53zm768.08 -277.04c0,72.61 -22.93,135.66 -95.53,135.66 -82.16,0 -93.62,-66.87 -93.62,-135.66l0 -437.52c0,-45.86 -40.13,-84.07 -103.18,-84.07 -26.74,0 -49.67,13.37 -49.67,32.48 0,13.37 7.64,24.84 7.64,61.14l0 426.06c0,103.18 21.02,263.67 233.1,263.67 72.6,0 149.02,-42.04 173.86,-91.71 26.75,49.67 91.71,91.71 173.87,91.71 196.79,0 233.09,-143.3 233.09,-261.76l0 -437.52c0,-45.86 -40.12,-84.07 -103.17,-84.07 -26.75,0 -49.68,13.37 -49.68,32.48 0,13.37 7.64,24.84 7.64,61.14l0 427.97c0,72.61 -22.92,135.66 -95.53,135.66 -74.51,0 -91.71,-55.41 -93.62,-135.66l0 -437.52c0,-45.86 -40.12,-84.07 -103.17,-84.07 -26.75,0 -49.68,13.37 -49.68,32.48 0,13.37 7.65,24.84 7.65,61.14l0 427.97zm1056.56 -347.73c0,-114.63 -64.96,-192.97 -171.95,-192.97 -147.12,0 -292.33,181.51 -292.33,424.16 0,238.82 164.32,378.3 338.18,378.3 280.86,0 357.28,-231.19 370.66,-347.73 7.64,-66.87 -99.35,-105.09 -116.55,-19.11 -22.93,116.55 -84.07,240.74 -233.09,240.74 -99.35,0 -150.94,-53.5 -177.69,-118.46 185.33,-55.41 282.77,-223.54 282.77,-364.93zm-307.61 225.46c-3.82,-80.25 24.84,-290.42 118.46,-290.42 24.84,0 40.12,24.84 40.12,66.87 0,114.64 -61.14,213.99 -156.67,257.94 0,-11.47 -1.91,-22.93 -1.91,-34.39zm875.06 -225.46c0,-114.63 -64.96,-192.97 -171.95,-192.97 -147.12,0 -292.33,181.51 -292.33,424.16 0,238.82 164.32,378.3 338.18,378.3 280.86,0 357.28,-231.19 370.66,-347.73 7.64,-66.87 -99.35,-105.09 -116.55,-19.11 -22.93,116.55 -84.07,240.74 -233.09,240.74 -99.35,0 -150.94,-53.5 -177.69,-118.46 185.33,-55.41 282.77,-223.54 282.77,-364.93zm-307.61 225.46c-3.82,-80.25 24.84,-290.42 118.46,-290.42 24.84,0 40.12,24.84 40.12,66.87 0,114.64 -61.14,213.99 -156.67,257.94 0,-11.47 -1.91,-22.93 -1.91,-34.39zm263.67 -567.45c-55.41,0 -21.02,128.01 40.12,128.01 0,0 47.76,3.82 131.83,3.82l0 607.57c0,150.94 72.6,212.08 175.78,212.08 164.31,0 240.73,-171.96 273.21,-298.06 1.91,-7.64 1.91,-11.46 1.91,-13.37 0,-36.3 -36.3,-78.34 -66.87,-78.34 -19.1,0 -38.21,17.2 -45.85,57.32 -17.2,84.07 -51.59,206.35 -128.01,206.35 -40.12,0 -64.96,-26.75 -64.96,-87.89l0 -605.66c101.26,0 213.99,0 366.83,-3.82 49.68,-1.91 66.87,-185.33 13.38,-128.01 -129.92,5.73 -263.67,7.64 -380.21,7.64l0 -334.36c0,-45.85 -40.13,-84.06 -103.18,-84.06 -26.74,0 -61.13,7.64 -61.13,21.01 0,13.38 19.1,17.2 19.1,72.6l0 322.9c-103.17,-1.91 -171.95,-5.73 -171.95,-5.73z"/>
  <path class="fil1" d="M1938.69 3634.14c-133.87,-56.12 -267.75,-112.25 -401.67,-168.34 -117.54,-49.29 -235.34,-102.84 -360.01,-131.73 -184.99,-42.86 -408.44,-25.22 -538.87,129.86 -122.45,145.59 -33.44,316.16 138.01,365.12 65.86,18.81 141.75,9.95 183.94,-49.32 36.58,-51.47 36.34,-117.22 -8.57,-162.34 -23.6,-23.75 -60.33,12.98 -36.73,36.72 56.2,56.48 -8.85,126.82 -69.11,132.47 -37.29,3.46 -77.54,-12.49 -109.5,-30.45 -88.02,-49.46 -139.21,-134.47 -79.87,-230.47 76.52,-123.71 240.77,-166.97 377.12,-160.51 155.4,7.34 302.05,72.07 443.44,131.3 149.33,62.55 298.7,125.17 448.03,187.75 30.76,12.91 44.2,-37.32 13.79,-50.06z"/>
  <path class="fil1" d="M2292.07 3634.14c133.88,-56.12 267.8,-112.25 401.67,-168.34 117.59,-49.29 235.34,-102.84 360.01,-131.73 185,-42.86 408.45,-25.22 538.91,129.86 122.41,145.59 33.41,316.16 -138.01,365.12 -65.9,18.81 -141.78,9.95 -183.94,-49.32 -36.58,-51.47 -36.37,-117.22 8.54,-162.34 23.6,-23.75 60.36,12.98 36.72,36.72 -56.19,56.48 8.89,126.82 69.11,132.47 37.29,3.46 77.54,-12.49 109.51,-30.45 88.01,-49.46 139.24,-134.47 79.86,-230.47 -76.51,-123.71 -240.77,-166.97 -377.08,-160.51 -155.43,7.34 -302.05,72.07 -443.48,131.3 -149.33,62.55 -298.66,125.17 -447.99,187.75 -30.8,12.91 -44.24,-37.32 -13.83,-50.06z"/>
  <path class="fil1" d="M2123.9 3664.84c-33.51,13.82 -49.6,-29.53 -28.29,-50.1 1.83,-0.46 3.7,-1.06 5.54,-1.94 14.6,-6.77 34.99,5.19 40.71,19.05 6,14.61 -4.66,27.52 -17.96,32.99zm62.8 -59.17c-18.56,-34.99 -58.14,-51.82 -94.97,-43.35 -5.4,-1.06 -11.36,-0.21 -17.43,3.7 -36.58,23.53 -50.83,72.25 -31.57,111.69 19.82,40.57 68.61,51.22 107.38,31.96 38.42,-19.08 57.3,-64.91 36.59,-104z"/>
 </g>
</svg>
